<svg xmlns="http://www.w3.org/2000/svg" viewBox="0 0 512.47 499.66"><defs><style>.a{fill:#1e3101;}.b{fill:#99e83f;}</style></defs><title>adobe-substance-3d-designer</title><rect class="a" width="512.47" height="499.66" rx="90.75"/><path class="b" d="M94.15,349.71V131.06a2.5,2.5,0,0,1,2.25-2.74h.16c3.43-.23,8.48-.4,15.12-.52s14.44-.22,23.38-.34,18.45-.17,28.53-.17q41.26,0,68.42,14.09a95.24,95.24,0,0,1,40.74,38.68q13.58,24.58,13.57,56.55a126,126,0,0,1-7,43.83A102.3,102.3,0,0,1,260,313.26a114.64,114.64,0,0,1-27.68,22.87,121.52,121.52,0,0,1-33,13.4,145.18,145.18,0,0,1-34.72,4.3H139q-13.57,0-25.26-.17t-17.54-.52C94.84,353.14,94.15,352,94.15,349.71Zm47.44-180.15V311.89q3.78,0,6.88.17l6.36.34c2.17.12,4.64.18,7.39.18a92.25,92.25,0,0,0,30.6-4.82,62.51,62.51,0,0,0,23.54-14.43,64.82,64.82,0,0,0,15.13-23.73,90,90,0,0,0,5.33-32,80.65,80.65,0,0,0-5.16-30.08,56.9,56.9,0,0,0-14.95-21.66A61.33,61.33,0,0,0,193.33,173a102.07,102.07,0,0,0-29.74-4.12c-4.58,0-8.42.05-11.51.17s-6.59.29-10.49.51Z"/><path class="b" d="M421.43,227A80.53,80.53,0,0,0,401,219.76,108.56,108.56,0,0,0,377.08,217a44.93,44.93,0,0,0-12.9,1.55,11.62,11.62,0,0,0-6.7,4.3,10.8,10.8,0,0,0-1.72,5.84,9.19,9.19,0,0,0,2.06,5.5,23.59,23.59,0,0,0,7.22,5.68,144.12,144.12,0,0,0,15.13,7A150.13,150.13,0,0,1,413,262.56a49.88,49.88,0,0,1,16.85,17.7,47.26,47.26,0,0,1,5,22,49.39,49.39,0,0,1-8.25,28.37,54.32,54.32,0,0,1-23.89,19.08Q387,356.58,364,356.58A139.59,139.59,0,0,1,335,353.83a83,83,0,0,1-20.8-6.87,4.46,4.46,0,0,1-2.4-4.13V305.7a2,2,0,0,1,.86-1.89,1.68,1.68,0,0,1,1.89.17A85.46,85.46,0,0,0,340,314.47,108.91,108.91,0,0,0,365,317.73q12,0,17.71-3.09a9.72,9.72,0,0,0,5.67-8.94q0-4.45-5.15-8.59t-21-10a126.39,126.39,0,0,1-30.42-15.47,52.63,52.63,0,0,1-16.16-18.05,47.37,47.37,0,0,1-5-21.83A49.3,49.3,0,0,1,318,206a52.41,52.41,0,0,1,22.34-19.59q15.12-7.56,37.82-7.56a166.33,166.33,0,0,1,26.47,1.89,64.64,64.64,0,0,1,17.88,5,3.13,3.13,0,0,1,2.06,1.89,9.38,9.38,0,0,1,.34,2.58v34.72a2.32,2.32,0,0,1-1,2.07A2.26,2.26,0,0,1,421.43,227Z"/></svg>