<svg xmlns="http://www.w3.org/2000/svg" viewBox="0 0 512.47 499.66"><defs><style>.a{fill:#1e3101;}.b{fill:#99e83f;}</style></defs><title>adobe-substance-3d-painter</title><path class="a" d="M90.75,0h331a90.75,90.75,0,0,1,90.75,90.75V408.91a90.75,90.75,0,0,1-90.75,90.75h-331A90.75,90.75,0,0,1,0,408.91V90.75A90.75,90.75,0,0,1,90.75,0Z"/><path class="b" d="M110.85,350.39V130.71c0-1.6.68-2.4,2.06-2.4q5.49,0,13.06-.17t16.33-.35l18.57-.34q9.8-.18,19.42-.18,26.13,0,44,6.54A76.18,76.18,0,0,1,253,151.34a67.28,67.28,0,0,1,15.64,24.24,80.35,80.35,0,0,1,4.82,27.67q0,27.51-12.72,45.38a72,72,0,0,1-34.38,26,137.05,137.05,0,0,1-48.13,8.08q-7.57,0-10.66-.18c-2.06-.11-5.16-.17-9.28-.17v67.73a2.74,2.74,0,0,1-2.32,3.09,2.49,2.49,0,0,1-.77,0H113.25C111.65,353.14,110.85,352.23,110.85,350.39Zm47.44-180.83v71.17q4.46.35,8.25.34h11.34a81.19,81.19,0,0,0,24.58-3.44A37.11,37.11,0,0,0,220,226.29q6.7-7.9,6.7-22a34.81,34.81,0,0,0-5-18.9,32.14,32.14,0,0,0-15-12.21,63.8,63.8,0,0,0-25.09-4.29q-8.25,0-14.61.17t-8.77.51Z"/><path class="b" d="M401,319.11V347.3q0,3.78-2.75,4.47a122.82,122.82,0,0,1-13.75,3.44A88.75,88.75,0,0,1,368,356.58q-22.35,0-35.06-11.69t-12.72-37.47V222.16H299.92c-1.83,0-2.75-1-2.75-3.09V185c0-1.83,1-2.75,3.1-2.75h20.28q.34-5.84.86-13.58c.35-5.15.8-10.31,1.38-15.47s1.08-9.34,1.54-12.54a6.09,6.09,0,0,1,1-1.89,3.74,3.74,0,0,1,1.72-1.21L368,132.44a2.87,2.87,0,0,1,1.89.09c.46.23.52.83.52,2q-.69,7.91-1,21.49t-.69,26.29h32c1.38,0,2.07.92,2.07,2.75v34.73a2.12,2.12,0,0,1-1.72,2.4H368.34v73.57q0,11.7,4,16.68t14.61,5c2.06,0,4-.05,5.85-.17s3.66-.29,5.5-.52a2.21,2.21,0,0,1,1.89.17A2.44,2.44,0,0,1,401,319.11Z"/></svg>